<?xml version="1.0" encoding="utf-8"?>
<!-- Generator: Adobe Illustrator 16.2.1, SVG Export Plug-In . SVG Version: 6.00 Build 0)  -->
<!DOCTYPE svg PUBLIC "-//W3C//DTD SVG 1.1//EN" "http://www.w3.org/Graphics/SVG/1.1/DTD/svg11.dtd">
<svg version="1.1" id="Layer_1" xmlns="http://www.w3.org/2000/svg" xmlns:xlink="http://www.w3.org/1999/xlink" x="0px" y="0px"
	 width="96.774px" height="105.162px" viewBox="0 0 96.774 105.162" enable-background="new 0 0 96.774 105.162"
	 xml:space="preserve">
<radialGradient id="SVGID_1_" cx="61.4736" cy="37.8765" r="52.0843" gradientUnits="userSpaceOnUse">
	<stop  offset="0" style="stop-color:#00A7E5"/>
	<stop  offset="0.2387" style="stop-color:#1874B5"/>
	<stop  offset="0.5379" style="stop-color:#34397E"/>
	<stop  offset="0.6813" style="stop-color:#3F2269"/>
	<stop  offset="0.8646" style="stop-color:#190E2A"/>
	<stop  offset="1" style="stop-color:#000000"/>
</radialGradient>
<circle fill="url(#SVGID_1_)" cx="48.994" cy="54.033" r="35.768"/>
<path fill="#FFFFFF" d="M11.778,45.985L11.778,45.985c-2.632,2.579-3.966,5.89-3.966,9.838c0,3.987,1.33,7.317,3.953,9.904
	c2.623,2.585,6.009,3.896,10.062,3.896c3.531,0,6.45-1.226,8.674-3.647c2.23-2.428,3.36-5.649,3.36-9.573l-0.009-0.83
	c0,0-0.015-0.164-0.028-0.306c-0.368,0-12.145,0-12.548,0c0,0.368,0,3.912,0,4.28c0.398,0,7.231,0,7.231,0v0.505
	c0,1.494-0.615,2.724-1.829,3.649c-1.193,0.913-2.765,1.376-4.672,1.376c-2.592,0-4.727-0.861-6.342-2.558
	c-1.613-1.691-2.431-3.939-2.431-6.683c0-2.792,0.814-5.056,2.422-6.731c1.61-1.678,3.784-2.528,6.46-2.528
	c1.406,0,2.667,0.274,3.748,0.813c1.062,0.531,2.817,2.17,3.806,3.336c0.257-0.25,2.841-2.724,3.096-2.973
	c-1.556-1.947-3.549-3.539-5.093-4.317c-1.766-0.889-3.737-1.34-5.859-1.34C17.787,42.097,14.411,43.405,11.778,45.985z"/>
<polygon fill="#FFFFFF" points="44.158,47.012 44.158,42.641 35.15,42.641 35.15,47.012 37.402,47.012 37.402,64.896 35.15,64.896 
	35.15,69.268 44.158,69.268 44.158,64.896 41.906,64.896 41.906,47.012 "/>
<path fill="#FFFFFF" d="M58.532,49.132l3.842-2.186c0,0-1.987-3.643-5.631-4.636c-3.643-0.994-8.015,1.06-9.472,4.372
	c-1.457,3.312-0.133,7.684,4.901,9.472c5.034,1.789,6.889,3.312,5.896,6.756c-0.994,3.444-7.684,4.305-7.948-2.385l-4.703,0.994
	c0,0,0.861,6.359,5.63,7.75c4.77,1.391,9.472-0.265,11.393-5.233s-1.191-9.168-5.828-10.758s-5.365-2.556-5.034-4.741
	S56.942,44.959,58.532,49.132z"/>
<circle fill="#FFFFFF" cx="68.467" cy="54.431" r="1.892"/>
<path fill="#FFFFFF" d="M65.95,58.802l4.6-0.662c0,0-1.685,7.617-1.95,8.743c-0.265,1.126,0.464,1.722,1.656-0.729h0.331
	c0,0-0.928,2.691-3.047,3.022c-2.25,0.352-2.701-0.157-2.119-3.287c0.529-2.848,2.384-6.889,0.596-6.624L65.95,58.802z"/>
</svg>
